<svg width="750" height="257" viewBox="0 0 750 257" fill="none" xmlns="http://www.w3.org/2000/svg">
<path d="M209 36C201.582 36 195.422 41.4175 194.226 48.5H184C175.729 48.5 169 55.225 169 63.4912V89.5H174V63.4912C174 57.9825 178.486 53.5 184 53.5H194.226C195.421 60.5825 201.582 66 209 66C217.271 66 224 59.2712 224 51C224 42.7288 217.271 36 209 36ZM209 61C203.486 61 199 56.5138 199 51C199 45.4862 203.486 41 209 41C214.514 41 219 45.4862 219 51C219 56.5138 214.514 61 209 61Z" fill="#283246"/>
<path d="M124.727 38.2093H114.545C114.545 29.8226 107.694 23 99.2727 23C90.8511 23 84 29.8226 84 38.2093C84 46.596 90.8511 53.4186 99.2727 53.4186C105.907 53.4186 111.551 49.1771 113.655 43.2791H124.727C130.341 43.2791 134.909 47.8343 134.909 53.4338V89.5H140V53.4338C140 45.0389 133.149 38.2093 124.727 38.2093ZM99.2727 48.3488C93.6587 48.3488 89.0909 43.8 89.0909 38.2093C89.0909 32.6186 93.6587 28.0698 99.2727 28.0698C104.887 28.0698 109.455 32.6186 109.455 38.2093C109.455 43.8 104.887 48.3488 99.2727 48.3488Z" fill="#283246"/>
<path d="M168.273 17.2093H176.455C176.455 8.82264 183.306 2 191.727 2C200.149 2 207 8.82264 207 17.2093C207 25.596 200.149 32.4186 191.727 32.4186C185.093 32.4186 179.449 28.1771 177.345 22.2791H168.273C162.659 22.2791 158.091 26.8343 158.091 32.4338V89.5H153V32.4338C153 24.0389 159.851 17.2093 168.273 17.2093ZM191.727 27.3488C197.341 27.3488 201.909 22.8 201.909 17.2093C201.909 11.6186 197.341 7.06977 191.727 7.06977C186.113 7.06977 181.545 11.6186 181.545 17.2093C181.545 22.8 186.113 27.3488 191.727 27.3488Z" fill="#283246"/>
<path d="M78.7778 106L78.7778 95.7744C71.5379 94.5781 66 88.4181 66 81C66 72.7288 72.8783 66 81.3333 66C89.7884 66 96.6667 72.7288 96.6667 81C96.6667 88.4181 91.1288 94.5781 83.8889 95.7744L83.8889 106C83.8889 111.514 88.4787 116 94.1201 116L120 116L120 121L94.1201 121C85.6612 121 78.7778 114.271 78.7778 106ZM91.5556 81C91.5556 75.4863 86.9696 71 81.3333 71C75.6971 71 71.1111 75.4863 71.1111 81C71.1111 86.5138 75.6971 91 81.3333 91C86.9696 91 91.5556 86.5138 91.5556 81Z" fill="#283246"/>
<path d="M49.7778 133V127.774C42.5379 126.578 37 120.418 37 113C37 104.729 43.8783 98 52.3333 98C60.7884 98 67.6667 104.729 67.6667 113C67.6667 120.418 62.1288 126.578 54.8889 127.774V133C54.8889 138.514 59.4787 143 65.1201 143H91V148H65.1201C56.6612 148 49.7778 141.271 49.7778 133ZM62.5556 113C62.5556 107.486 57.9696 103 52.3333 103C46.6971 103 42.1111 107.486 42.1111 113C42.1111 118.514 46.6971 123 52.3333 123C57.9696 123 62.5556 118.514 62.5556 113Z" fill="#283246"/>
<path d="M30.2093 158.273V167.455C21.8226 167.455 15 174.306 15 182.727C15 191.149 21.8226 198 30.2093 198C38.596 198 45.4186 191.149 45.4186 182.727C45.4186 176.093 41.1771 170.449 35.2791 168.345L35.2791 158.273C35.2791 152.659 39.8343 148.091 45.4338 148.091H124V143H45.4338C37.0389 143 30.2093 149.851 30.2093 158.273ZM40.3488 182.727C40.3488 188.341 35.8 192.909 30.2093 192.909C24.6186 192.909 20.0698 188.341 20.0698 182.727C20.0698 177.113 24.6186 172.545 30.2093 172.545C35.8 172.545 40.3488 177.113 40.3488 182.727Z" fill="#283246"/>
<path d="M115 206.222H105.774C104.578 213.462 98.4181 219 91 219C82.7288 219 76 212.122 76 203.667C76 195.212 82.7288 188.333 91 188.333C98.4181 188.333 104.578 193.871 105.774 201.111H115C120.514 201.111 125 196.521 125 190.88V162.5H130V190.88C130 199.339 123.271 206.222 115 206.222ZM91 193.444C85.4862 193.444 81 198.03 81 203.667C81 209.303 85.4862 213.889 91 213.889C96.5138 213.889 101 209.303 101 203.667C101 198.03 96.5138 193.444 91 193.444Z" fill="#283246"/>
<path d="M141.727 237.791H137.545C137.545 246.177 130.694 253 122.273 253C113.851 253 107 246.177 107 237.791C107 229.404 113.851 222.581 122.273 222.581C128.907 222.581 134.551 226.823 136.655 232.721H141.727C147.341 232.721 151.909 228.166 151.909 222.566V165H157V222.566C157 230.961 150.149 237.791 141.727 237.791ZM122.273 227.651C116.659 227.651 112.091 232.2 112.091 237.791C112.091 243.381 116.659 247.93 122.273 247.93C127.887 247.93 132.455 243.381 132.455 237.791C132.455 232.2 127.887 227.651 122.273 227.651Z" fill="#283246"/>
<path d="M191 231.222H201.226C202.422 238.462 208.582 244 216 244C224.271 244 231 237.122 231 228.667C231 220.212 224.271 213.333 216 213.333C208.582 213.333 202.422 218.871 201.226 226.111H191C185.486 226.111 181 221.521 181 215.88V167H176V215.88C176 224.339 182.729 231.222 191 231.222ZM216 218.444C221.514 218.444 226 223.03 226 228.667C226 234.303 221.514 238.889 216 238.889C210.486 238.889 206 234.303 206 228.667C206 223.03 210.486 218.444 216 218.444Z" fill="#283246"/>
<path d="M228 92H136C128.268 92 122 98.268 122 106V151C122 158.732 128.268 165 136 165H358" stroke="url(#paint0_linear_675_6)" stroke-width="5"/>
<path d="M314 152.5V109H309.5V139L283 109H278V152.5H282.5V119L311.5 152.5H314Z" fill="#283246"/>
<path fill-rule="evenodd" clip-rule="evenodd" d="M442 107.5L449 105V124.5C450.333 123 454.1 120 458.5 120C464 120 471.5 124.5 471.5 134.5C471.5 144.5 462.5 152.5 454.5 152C448.1 151.6 443.5 149.167 442 148V107.5ZM449 128.5V146C449 146 451 148 455.5 148C460 148 464 143 464 136.5C464 130 461 126 455.5 126C451.5 126 449 128.5 449 128.5Z" fill="#283246"/>
<path d="M171.5 152H179L160 109H157.5L137 152H141L156.5 120L171.5 152Z" fill="#283246"/>
<rect x="147" y="135" width="19" height="3" fill="#283246"/>
<path d="M214 110H219L183 152H178.5L214 110Z" fill="#283246"/>
<path d="M189 110H179.5L211 152H221L189 110Z" fill="#283246"/>
<path d="M379 152V113H386V149H406V152H379Z" fill="#283246"/>
<path d="M342.045 147.667C343.503 147.076 345.271 145.842 345.786 144.308C346.751 141.415 345.381 139.043 343.156 137.248C338.249 133.287 332.031 131.583 327.304 127.328C323.383 123.801 322.587 118.995 324.826 114.347C326.153 111.587 329.101 109.615 331.98 108.789C334.83 107.969 337.772 107.788 340.807 108.246C346.181 109.057 350.236 112.402 351.975 117.604C352.035 117.78 352.028 117.973 351.956 118.145C351.884 118.317 351.752 118.458 351.584 118.54L348.881 119.85C348.632 119.971 348.347 119.992 348.084 119.908C347.821 119.824 347.6 119.642 347.467 119.399C346.809 118.206 346.294 116.976 345.468 115.853C342.821 112.269 339.154 110.992 334.468 112.02C333.623 112.203 332.651 112.759 331.552 113.687C328.823 115.988 329.832 119.615 332.265 121.602C333.726 122.796 335.196 123.792 336.675 124.59C341.037 126.943 345.366 129.072 349.224 132.274C351.361 134.043 352.954 136.583 352.998 139.385C353.047 142.679 352.097 145.375 350.149 147.472C346.484 151.419 341.205 152.263 335.794 151.936C330.131 151.591 325.919 148.695 323.402 143.459C323.207 143.051 323.075 142.63 323.007 142.197C322.985 142.072 323.014 141.96 323.095 141.863C323.421 141.456 323.822 141.152 324.297 140.948C325.088 140.613 325.869 140.252 326.639 139.865C326.727 139.821 326.828 139.81 326.924 139.834C327.02 139.857 327.105 139.914 327.165 139.994C327.696 140.721 328.129 141.462 328.465 142.219C330.84 147.567 336.967 149.726 342.045 147.667Z" fill="#283246"/>
<path d="M269.998 131.283C269.963 134.172 269.334 137.025 268.146 139.68C266.958 142.335 265.234 144.739 263.074 146.755C260.913 148.772 258.358 150.361 255.555 151.432C252.751 152.503 249.754 153.035 246.733 152.998C240.634 152.923 234.812 150.533 230.549 146.355C226.286 142.176 223.931 136.551 224.002 130.717C224.037 127.828 224.666 124.975 225.854 122.32C227.042 119.665 228.766 117.261 230.926 115.245C233.087 113.228 235.642 111.639 238.445 110.568C241.249 109.497 244.246 108.965 247.267 109.002C253.366 109.077 259.188 111.467 263.451 115.645C267.714 119.824 270.069 125.449 269.998 131.283ZM238.183 115.532C235.767 117.805 234.177 121.406 233.61 124.623C233.023 127.945 232.939 131.527 233.359 135.368C233.748 138.929 235.167 143.241 237.659 145.863C239.108 147.385 240.53 148.566 242.575 149.259C244.617 149.952 247.146 149.971 249.278 149.74C254.452 149.175 258.305 144.341 259.714 139.486C260.997 135.066 261.298 130.686 260.616 126.346C260.218 123.813 259.602 121.629 258.768 119.793C257.287 116.544 254.412 113.694 250.897 112.642C248.115 111.808 245.324 111.863 242.524 112.807C241.016 113.318 239.569 114.226 238.183 115.532Z" fill="#283246"/>
<path d="M426.35 148.204C426.314 148.144 426.257 148.102 426.192 148.085C426.126 148.069 426.058 148.08 426.001 148.116C425.252 148.589 424.502 149.102 423.749 149.656C421.321 151.439 418.614 152.204 415.575 151.954C414.761 151.885 414.006 151.665 413.309 151.292C410.354 149.706 408.919 147.193 409.004 143.752C409.062 141.419 409.882 139.489 411.463 137.962C415.152 134.404 419.98 132.889 425.076 131.522C425.849 131.316 426.262 130.566 426.156 129.753C426.015 128.638 425.888 127.562 425.775 126.526C425.394 122.989 421.36 122.022 418.903 124.015C417.544 125.114 416.856 126.614 416.306 128.268C416.122 128.817 415.737 129.1 415.152 129.117C413.625 129.164 412.088 129.127 410.542 129.007C410.493 129.004 410.445 128.99 410.401 128.966C410.357 128.942 410.318 128.91 410.287 128.87C410.255 128.83 410.231 128.784 410.217 128.734C410.203 128.685 410.198 128.632 410.203 128.581C410.267 127.941 410.334 127.243 410.585 126.654C412.296 122.611 416.39 120.556 420.446 120.107C422.008 119.933 423.68 119.971 425.461 120.221C428.164 120.6 431.513 122.221 432.223 125.099C432.531 126.344 432.688 127.565 432.692 128.761C432.709 133.346 432.716 138.188 432.713 143.285C432.71 144.587 432.851 145.859 432.953 147.171C433.048 148.379 433.595 149.29 434.595 149.903C434.696 149.965 434.777 150.056 434.827 150.164C434.999 150.526 435.043 150.94 434.958 151.406C434.932 151.556 434.849 151.616 434.707 151.586C433.999 151.437 433.22 151.406 432.371 151.494C430.896 151.645 428.499 151.399 427.381 150.255C426.827 149.689 426.749 148.877 426.35 148.204ZM422.718 146.609C423.664 146.164 425.662 145.098 425.877 143.991C425.988 143.413 426.051 142.844 426.068 142.285C426.138 139.918 426.158 137.38 426.128 134.672C426.127 134.619 426.114 134.568 426.09 134.521C426.067 134.474 426.034 134.434 425.993 134.403C425.952 134.373 425.905 134.352 425.855 134.344C425.806 134.336 425.755 134.34 425.708 134.356C422.521 135.4 418.699 137.301 416.584 139.984C415.62 141.207 415.421 142.578 415.988 144.098C417.186 147.316 419.429 148.153 422.718 146.609Z" fill="#283246"/>
<defs>
<linearGradient id="paint0_linear_675_6" x1="173" y1="92" x2="228" y2="92" gradientUnits="userSpaceOnUse">
<stop stop-color="#283246"/>
<stop offset="1" stop-color="#283246" stop-opacity="0"/>
</linearGradient>
</defs>
</svg>
